<svg width="502.8833465576172" height="92.10836769117762" viewBox="0 0 369.6666666666667 67.70833333333333" class="css-1j8o68f"><defs id="SvgjsDefs2405"><linearGradient id="SvgjsLinearGradient2410"><stop id="SvgjsStop2411" stop-color="#ef4136" offset="0"></stop><stop id="SvgjsStop2412" stop-color="#fbb040" offset="1"></stop></linearGradient><linearGradient id="SvgjsLinearGradient2413"><stop id="SvgjsStop2414" stop-color="#ef4136" offset="0"></stop><stop id="SvgjsStop2415" stop-color="#fbb040" offset="1"></stop></linearGradient></defs><g id="SvgjsG2406" featurekey="symbolFeature-0" transform="matrix(5.208333333333333,0,0,5.208333333333333,0,-10.416666666666666)" fill="url(#SvgjsLinearGradient2410)"><path xmlns="http://www.w3.org/2000/svg" d="M0,2v13h16V2H0z M3,14H1v-2h2V14z M3,11H1V9h2V11z M3,8H1V6h2V8z M3,5H1V3h2V5z M6,12V5l5,3.5L6,12z M15,14h-2v-2h2V14z   M15,11h-2V9h2V11z M15,8h-2V6h2V8z M15,5h-2V3h2V5z"></path></g><g id="SvgjsG2407" featurekey="nameFeature-0" transform="matrix(1.587861013824762,0,0,1.587861013824762,97.85532765003578,-8.023280973909571)" fill="url(#SvgjsLinearGradient2413)"><path d="M16.28 30.759999999999998 l0 -1.24 c0 -0.2 0.16 -0.36 0.36 -0.36 l4.56 0 c0.2 0 0.36 0.16 0.36 0.36 l0 2.52 c0 5.88 -3.16 8.36 -9.12 8.36 c-5.56 0 -9.2 -2.2 -9.2 -8.36 l0 -10.52 c0 -5.92 3.24 -8.28 9.2 -8.28 c5.64 0 9.12 2.16 9.12 8.28 l0 0.84 c0 0.2 -0.16 0.36 -0.36 0.36 l-4.6 0 c-0.2 0 -0.36 -0.16 -0.36 -0.36 l0 -0.64 c0 -2.2 -1.64 -3.12 -3.6 -3.12 l-0.48 0 c-1.32 0 -2.2 0.36 -2.8 1.16 c-0.56 0.76 -0.76 1.76 -0.76 3.08 l0 7.92 c0 3.48 1.96 4.24 3.56 4.24 l0.48 0 c2.52 0 3.56 -1.68 3.64 -4.24 z M12.36 15.719999999999999 c-4.28 0 -6.76 1.52 -6.76 6.4 l0 9.64 c0 4.44 2.28 6.08 6.76 6.08 c4.2 0 6.72 -1.52 6.72 -6.12 c0 -0.32 -0.48 -0.32 -0.48 0 c0 4.04 -2.2 5.68 -6.24 5.68 c-3.92 0 -6.32 -1.36 -6.32 -5.64 l0 -9.64 c0 -4.16 1.96 -5.96 6.32 -5.96 c5.68 0 5.88 3.6 5.88 4 c0 0.36 0.56 0.4 0.56 0 c0 -3.32 -3.36 -4.44 -6.44 -4.44 z M28.64 40 c-0.2 0 -0.32 -0.16 -0.32 -0.36 l0 -25.68 c0 -0.2 0.12 -0.36 0.32 -0.36 l4.56 0 c0.2 0 0.36 0.16 0.36 0.36 l0 25.68 c0 0.2 -0.16 0.36 -0.36 0.36 l-4.56 0 z M30.720000000000002 16 l0 21.56 c0 0.36 0.44 0.36 0.44 0 l0 -21.56 c0 -0.28 -0.44 -0.28 -0.44 0 z M51.84 13.96 c0 -0.2 0.16 -0.36 0.36 -0.36 l4.6 0 c0.2 0 0.36 0.16 0.36 0.36 l0 25.68 c0 0.2 -0.16 0.36 -0.36 0.36 l-4.44 0 c-0.16 0 -0.32 -0.08 -0.36 -0.2 l-5.84 -13.16 l0 13 c0 0.2 -0.16 0.36 -0.36 0.36 l-4.56 0 c-0.2 0 -0.32 -0.16 -0.32 -0.36 l0 -25.68 c0 -0.2 0.12 -0.36 0.32 -0.36 l4.72 0 c0.16 0 0.24 0.12 0.28 0.2 l5.6 12.92 l0 -12.76 z M54.72 37.6 l0 -21.6 c0 -0.28 -0.52 -0.36 -0.52 0 l0 20.56 l-10.44 -20.64 c-0.12 -0.16 -0.44 -0.16 -0.44 0.08 l0 21.56 c0 0.36 0.48 0.36 0.48 0 l0 -20.52 l10.4 20.6 c0.16 0.28 0.52 0.2 0.52 -0.04 z M65 40 c-0.2 0 -0.32 -0.16 -0.32 -0.36 l0 -25.68 c0 -0.2 0.12 -0.36 0.32 -0.36 l13.6 0 c0.2 0 0.36 0.16 0.36 0.36 l0 4.28 c0 0.2 -0.16 0.36 -0.36 0.36 l-8.64 0 l0 5.44 l6.72 0 c0.2 0 0.32 0.16 0.32 0.36 l0 4.36 c0 0.2 -0.12 0.36 -0.32 0.36 l-6.72 0 l0 5.88 l8.64 0 c0.2 0 0.36 0.16 0.36 0.36 l0 4.28 c0 0.2 -0.16 0.36 -0.36 0.36 l-13.6 0 z M67 16.12 l0 21.28 c0 0.24 0.16 0.32 0.32 0.32 l9.2 0 c0.36 0 0.28 -0.48 0 -0.48 l-9 0 l0 -10.44 l7.36 0 c0.24 0 0.24 -0.56 0 -0.56 l-7.36 0 l0 -9.92 l9 0 c0.28 0 0.36 -0.52 0 -0.52 l-9.2 0 c-0.16 0 -0.32 0.12 -0.32 0.32 z M89.12 13.84 l4.4 16.56 l4.52 -16.56 c0.08 -0.12 0.16 -0.24 0.32 -0.24 l4.56 0 c0.24 0 0.4 0.2 0.32 0.44 l-6.92 25.72 c-0.08 0.16 -0.16 0.24 -0.32 0.24 l-4.96 0 c-0.12 0 -0.24 -0.08 -0.28 -0.24 l-6.92 -25.72 c-0.04 -0.24 0.12 -0.44 0.36 -0.44 l4.6 0 c0.16 0 0.24 0.12 0.32 0.24 z M93.44000000000001 37.24 l-6.68 -21.32 c-0.12 -0.32 -0.56 -0.12 -0.44 0.12 l6.64 21.36 c0.16 0.6 0.8 0.64 1 0 l6.4 -21.36 c0.08 -0.24 -0.36 -0.4 -0.44 -0.12 z M109.12 40 c-0.2 0 -0.32 -0.16 -0.32 -0.36 l0 -25.68 c0 -0.2 0.12 -0.36 0.32 -0.36 l4.56 0 c0.2 0 0.36 0.16 0.36 0.36 l0 25.68 c0 0.2 -0.16 0.36 -0.36 0.36 l-4.56 0 z M111.2 16 l0 21.56 c0 0.36 0.44 0.36 0.44 0 l0 -21.56 c0 -0.28 -0.44 -0.28 -0.44 0 z M121.72 40 c-0.2 0 -0.32 -0.16 -0.32 -0.36 l0 -25.68 c0 -0.2 0.12 -0.36 0.32 -0.36 l13.6 0 c0.2 0 0.36 0.16 0.36 0.36 l0 4.28 c0 0.2 -0.16 0.36 -0.36 0.36 l-8.64 0 l0 5.44 l6.72 0 c0.2 0 0.32 0.16 0.32 0.36 l0 4.36 c0 0.2 -0.12 0.36 -0.32 0.36 l-6.72 0 l0 5.88 l8.64 0 c0.2 0 0.36 0.16 0.36 0.36 l0 4.28 c0 0.2 -0.16 0.36 -0.36 0.36 l-13.6 0 z M123.72 16.12 l0 21.28 c0 0.24 0.16 0.32 0.32 0.32 l9.2 0 c0.36 0 0.28 -0.48 0 -0.48 l-9 0 l0 -10.44 l7.36 0 c0.24 0 0.24 -0.56 0 -0.56 l-7.36 0 l0 -9.92 l9 0 c0.28 0 0.36 -0.52 0 -0.52 l-9.2 0 c-0.16 0 -0.32 0.12 -0.32 0.32 z M170.84 13.600000000000001 c0.24 0 0.4 0.2 0.32 0.44 l-6.88 25.72 c-0.04 0.16 -0.2 0.24 -0.36 0.24 l-4.4 0 c-0.16 0 -0.28 -0.08 -0.36 -0.24 l-2.72 -10.12 l-3.68 10.16 c-0.04 0.12 -0.12 0.2 -0.28 0.2 l-4.24 0 c-0.16 0 -0.28 -0.08 -0.32 -0.24 l-6.84 -25.76 c-0.04 -0.2 0.08 -0.4 0.36 -0.4 l4.6 0 c0.12 0 0.24 0.12 0.28 0.24 l4.44 16.96 l3.32 -10.04 l-1.84 -6.72 c-0.08 -0.24 0.12 -0.44 0.32 -0.44 l4.96 0 c0.16 0 0.24 0.04 0.32 0.24 l3.68 16.32 l4.4 -16.32 c0.04 -0.12 0.16 -0.24 0.32 -0.24 l4.6 0 z M156.76 21.16 l-6.04 16.08 l-6.48 -21.32 c-0.08 -0.28 -0.56 -0.16 -0.48 0.12 l6.48 21.36 c0.12 0.56 0.8 0.52 1 0 l5.72 -15.44 l4.2 15.4 c0.16 0.6 0.88 0.6 1 0.04 l6.36 -21.36 c0.12 -0.28 -0.4 -0.44 -0.48 -0.12 l-6.32 21.32 l-5.84 -21.32 c-0.04 -0.28 -0.56 -0.2 -0.44 0.12 z"></path></g></svg>